<svg width="204" height="204" viewBox="0 0 975 975" fill="none" xmlns="http://www.w3.org/2000/svg">
<path d="M698.035 708.538C704.712 705.99 709.98 700.706 712.507 694.021L926.506 127.981C936.335 101.982 974.89 109.027 974.89 136.822V949.89C974.89 963.697 963.697 974.89 949.89 974.89H135.644C107.892 974.89 100.803 936.426 126.731 926.533L698.035 708.538Z" fill="#2B2D42"/>
<path d="M47.5186 34.5039C47.5186 20.6968 58.7114 9.50391 72.5186 9.50391H877.008C894.941 9.50391 907.042 27.8281 900 44.321L835.064 196.402C831.132 205.611 822.085 211.585 812.072 211.585H72.5186C58.7115 211.585 47.5186 200.392 47.5186 186.585V34.5039Z" fill="#FF4241"/>
<path d="M47.5186 295.608C47.5186 281.801 58.7114 270.608 72.5186 270.608H635.068C652.419 270.608 664.494 287.851 658.561 304.157L603.225 456.238C599.631 466.115 590.243 472.689 579.732 472.689H72.5185C58.7114 472.689 47.5186 461.496 47.5186 447.689V295.608Z" fill="#FF4241"/>
<path d="M47.5186 556.713C47.5186 542.906 58.7114 531.713 72.5186 531.713H387.547C404.735 531.713 416.797 548.658 411.169 564.899L358.467 716.98C354.98 727.044 345.497 733.794 334.846 733.794H72.5186C58.7114 733.794 47.5186 722.601 47.5186 708.794V556.713Z" fill="#FF4241"/>
</svg>
