<svg width="204" height="204" viewBox="0 0 204 204" fill="none" xmlns="http://www.w3.org/2000/svg">
<path d="M112.131 0H92.4008C88.4796 0 85.3008 3.17878 85.3008 7.1V196.82C85.3008 200.741 88.4796 203.92 92.4008 203.92H112.131C116.052 203.92 119.231 200.741 119.231 196.82V7.1C119.231 3.17878 116.052 0 112.131 0Z" fill="black"/>
<path d="M196.77 84.0605H7.15C3.20117 84.0605 0 87.2617 0 91.2105V111.161C0 115.109 3.20117 118.311 7.15 118.311H196.77C200.719 118.311 203.92 115.109 203.92 111.161V91.2105C203.92 87.2617 200.719 84.0605 196.77 84.0605Z" fill="black"/>
<path d="M37.719 21.1939L23.3763 35.1756C20.5646 37.9166 20.5072 42.4181 23.2482 45.2298L155.666 181.066C158.408 183.878 162.909 183.935 165.721 181.194L180.063 167.212C182.875 164.471 182.933 159.97 180.191 157.158L47.7732 21.322C45.0322 18.5102 40.5308 18.4528 37.719 21.1939Z" fill="black"/>
<path d="M91.0099 111.851C87.0799 107.991 83.4499 103.771 79.2999 100.141L78.0399 101.431L23.7199 157.141C22.4038 158.49 21.6772 160.306 21.6997 162.19C21.7222 164.075 22.492 165.873 23.8399 167.191L38.1899 181.191C39.538 182.49 41.3443 183.205 43.2166 183.181C45.0889 183.157 46.876 182.395 48.1899 181.061L98.8999 129.061C99.569 128.375 100.092 127.56 100.438 126.667C100.784 125.773 100.946 124.819 100.913 123.861C100.88 122.903 100.654 121.962 100.248 121.094C99.8418 120.226 99.2642 119.449 98.5499 118.811C96.0499 116.501 93.4599 114.251 91.0099 111.851Z" fill="black"/>
<path d="M106.959 120.57L180.179 45.1798C181.497 43.8257 182.225 42.0044 182.202 40.115C182.18 38.2256 181.409 36.4221 180.059 35.0998L165.959 21.2498C165.288 20.5917 164.494 20.0725 163.622 19.7219C162.749 19.3712 161.817 19.196 160.877 19.2062C159.937 19.2164 159.008 19.4119 158.144 19.7814C157.279 20.151 156.496 20.6873 155.839 21.3598L106.959 71.5298C106.292 72.2107 105.495 72.7516 104.616 73.1209C103.737 73.4902 102.793 73.6804 101.839 73.6804C100.886 73.6804 99.9419 73.4902 99.0628 73.1209C98.1836 72.7516 97.387 72.2107 96.7194 71.5298L47.7894 21.3398C46.4663 19.985 44.6598 19.2105 42.7663 19.1861C40.8728 19.1618 39.047 19.8895 37.6894 21.2098L23.3994 35.1398C22.0417 36.4633 21.2652 38.2719 21.2408 40.1678C21.2164 42.0638 21.9462 43.8918 23.2694 45.2498L96.7194 120.57C97.3856 121.253 98.1818 121.796 99.0611 122.167C99.9404 122.538 100.885 122.729 101.839 122.729C102.794 122.729 103.738 122.538 104.618 122.167C105.497 121.796 106.293 121.253 106.959 120.57Z" fill="#FF4241"/>
</svg>
