<svg xmlns="http://www.w3.org/2000/svg" height="40" viewBox="0 96 960 960" width="40"><path d="M94.333 812.333 40 772.667 232 466l119.714 140 159.619-258.666 109 162.333q-18.333 1.667-35.166 6.167-16.834 4.5-33.5 11.166l-37.334-57-152.371 248.333-121.296-141-146.333 235ZM872.334 1016 741.333 885q-20.666 14.667-45.166 22.333-24.5 7.667-50.5 7.667-72.222 0-122.778-50.578-50.555-50.579-50.555-122.834t50.578-122.754q50.578-50.5 122.833-50.5T768.5 618.889Q819 669.445 819 741.667q0 26-8 50.5t-22 46.465l131 129.702L872.334 1016ZM645.573 848.334q44.76 0 75.761-30.907 31-30.906 31-75.666 0-44.761-30.907-75.761-30.906-31-75.666-31Q601 635 570 665.906q-31 30.906-31 75.667 0 44.76 30.906 75.761 30.906 31 75.667 31ZM724.666 523q-16.333-6.667-33.833-9.666-17.5-3-36.166-4.667l211-332.667L920 215.666 724.666 523Z"/></svg>