<svg xmlns="http://www.w3.org/2000/svg" height="40" viewBox="0 96 960 960" width="40"><path d="M186.666 936q-27 0-46.833-19.833T120 869.334V354q0-15 3.667-26 3.666-11 11.666-20.667l56-73.333q8-9.667 19-13.833 11-4.167 25-4.167h489.334q14 0 24.666 4.167Q760 224.333 768 234l56.667 73.333q8 9.667 11.666 20.667Q840 339 840 354v515.334q0 27-19.833 46.833T773.334 936H186.666Zm16.667-609.334H756l-35.333-44H238.666l-35.333 44ZM480 795.999l157.333-157.333L592 593.333 513.333 672V482h-66.666v190L368 593.333l-45.333 45.333L480 795.999Z"/></svg>