<svg xmlns="http://www.w3.org/2000/svg" height="40" viewBox="0 96 960 960" width="40"><path d="M480 609.333q-58.333 0-98.167-39.833Q342 529.667 342 471.333q0-58.333 39.833-98.166 39.834-39.834 98.167-39.834t98.167 39.834Q618 413 618 471.333q0 58.334-39.833 98.167-39.834 39.833-98.167 39.833Zm0-66.666q31.333 0 51.334-20 20-20 20-51.334 0-31.333-20-51.333-20.001-20-51.334-20-31.333 0-51.334 20-20 20-20 51.333 0 31.334 20 51.334 20.001 20 51.334 20Zm0 432.666q-139.667-35-229.833-161.5Q160 687.333 160 535.333v-240l320-120 320 120v240q0 152-90.167 278.5-90.166 126.5-229.833 161.5ZM480 576Zm0-329.667-253.334 95.333v193.667q0 60 16.667 115.334Q260 706 290 753.667q44.667-23.667 91.667-36 47-12.333 98.333-12.333t98.333 12.333q47 12.333 91.667 36 30-47.667 46.667-103 16.667-55.334 16.667-115.334V341.666L480 246.333ZM480 772q-38 0-75.333 9.333-37.334 9.334-73.001 27.334Q362.666 842 400 867q37.333 25 80 39 42.667-14 80-39 37.334-25 68.334-58.333-35.667-18-73.001-27.334Q518 772 480 772Z"/></svg>