<svg xmlns="http://www.w3.org/2000/svg" height="40" viewBox="0 96 960 960" width="40"><path d="M480.114 609.333q57.219 0 97.553-40.448Q618 528.438 618 471.219q0-57.219-40.448-97.552-40.448-40.334-97.666-40.334-57.219 0-97.553 40.448Q342 414.229 342 471.448T382.448 569q40.448 40.333 97.666 40.333Zm-.114 366q-147.333-37.666-233.667-161.694Q160 689.611 160 535.333v-240l320-120 320 120v240q0 154.278-86.333 278.306Q627.333 937.667 480 975.333ZM480 906q59.667-19.666 106.833-59.5 47.167-39.833 81.834-90.833-44.112-21.348-91.815-32.507Q529.149 712 479.908 712t-96.881 11.16q-47.64 11.159-91.694 32.507 34.667 51 81.834 90.833Q420.333 886.334 480 906Z"/></svg>