<svg xmlns="http://www.w3.org/2000/svg" height="40" viewBox="0 96 960 960" width="40"><path d="M680 729.333q-50 0-85-35t-35-85q0-50 35-85t85-35q50 0 85 35t35 85q0 50-35 85t-85 35Zm0-66.666q22.667 0 38-15.334 15.334-15.333 15.334-38t-15.334-38q-15.333-15.334-38-15.334t-38 15.334q-15.334 15.333-15.334 38t15.334 38q15.333 15.334 38 15.334ZM440 1009.33V893.333q0-21 10-39.5t28-29.5q29.333-17.666 61.167-30.166 31.833-12.5 65.499-19.834L680 870l75.334-95.667q33.666 7.334 64.999 19.834 31.334 12.5 60.667 30.166 18 11 28.5 29.5t10.5 39.5v115.997H440Zm66.333-66.663H652l-72.667-92.668q-19.333 7-37.667 16.001-18.333 9-35.333 19.333v57.334Zm201.667 0h145.334v-57.334q-16.667-10.667-34.667-19.5-18-8.834-37.333-15.834L708 942.667Zm-56 0Zm56 0ZM186.666 936q-27.5 0-47.083-19.583T120 869.334V282.666q0-27.5 19.583-47.083T186.666 216h586.668q27.5 0 47.083 19.583T840 282.666v231.335q-12.667-20-29-37.334-16.333-17.333-37.666-28V282.666H186.666v586.668h188.668q-1 6-1.5 11.999-.5 6-.5 12V936H186.666ZM280 442.666h320.668q18-9.999 38.226-14.999 20.227-5 41.106-5V376H280v66.666Zm0 166.667h213.334q0-17 3.166-34 3.167-17 9.167-32.666H280v66.666ZM280 776h151.334q15-11.667 31.833-19.667 16.834-8 34.501-15.333v-31.666H280V776Zm-93.334 93.334V282.666v165.668-25.667 446.667ZM680 609.333Z"/></svg>