<svg xmlns="http://www.w3.org/2000/svg" height="48" viewBox="0 96 960 960" width="48"><path d="M706.317 985.935q-83.611 0-141.268-57.786-57.658-57.787-57.658-141.158 0-83.372 57.667-141.149 57.666-57.777 141.277-57.777 83.372 0 141.149 57.786 57.777 57.787 57.777 141.158 0 83.372-57.786 141.149-57.787 57.777-141.158 57.777Zm58.492-94.978 30.713-31.435-76-75.048V663.152h-43.913v137.019l89.2 90.786Zm-584.7 60.195q-32.526 0-54.915-22.557-22.39-22.556-22.39-54.747V273.826q0-33.668 21.651-55.606 21.651-21.937 55.654-21.937h190.978q10-35.522 39.982-58.381 29.983-22.859 68.931-22.859 37.717 0 67.696 22.74 29.978 22.739 41.456 58.5h190.739q34.003 0 55.773 21.937 21.771 21.938 21.771 55.606v299.587q-16.674-10.435-37.049-18.632-20.375-8.197-40.495-12.477V273.826h-58.804v107.131H238.913V273.826h-58.804v600.022h284.804q5.478 18.913 15.935 38.989 10.456 20.076 23.891 38.315h-324.63ZM480.88 269.957q15.881 0 27.881-11.62t12-28.5q0-16.641-12-28.261-12-11.619-28-11.619-16.761 0-28.381 11.619-11.619 11.62-11.619 28.381 0 16.76 11.619 28.38 11.62 11.62 28.5 11.62Z"/></svg>