<svg xmlns="http://www.w3.org/2000/svg" height="48" viewBox="0 96 960 960" width="48"><path d="M915.087 531.544q-89.522-84.805-198.576-138.153Q607.456 340.044 480 340.044q-36.891 0-71.304 5.38-34.413 5.381-57.022 12.185l-89.956-89.957q48.847-17.043 104.521-27.087Q421.913 230.522 480 230.522q145.609 0 277.663 60.924t234.185 164.337l-76.761 75.761ZM740.609 707.022Q707.326 675.5 679.446 655q-27.881-20.5-69.403-39.544L495.109 500.283q95.326 4.478 168.293 41.88 72.968 37.402 138.815 102.25l-61.608 62.609Zm64.239 295.148L416 615.087q-57.565 13.239-102.13 42.402-44.566 29.163-79.326 62.924l-76.761-76q35.239-35.239 75.184-64.783 39.946-29.543 96.75-52.065L212.326 409.413q-47.521 24-90.347 56.946-42.826 32.945-77.066 65.424l-76.76-76q34.239-34.761 77.043-68.685Q88 353.174 129.805 328.891l-81.588-82.587 51.044-51.043L855.13 951.13l-50.282 51.04ZM480 966.63 340.652 825.282q26.478-26.717 62.435-42.576 35.956-15.858 76.913-15.858 40.957 0 76.913 15.858 35.957 15.859 63.435 42.576L480 966.63Z"/></svg>