<svg xmlns="http://www.w3.org/2000/svg" height="48" viewBox="0 96 960 960" width="48"><path d="m234.304 720.413-76.521-75.761q72.043-72.282 151.228-109.185Q388.196 498.565 480 498.565t170.989 36.902q79.185 36.903 151.228 108.185l-76.521 76.761q-61-60.522-121.946-86.304-60.946-25.783-123.75-25.783t-123.25 25.783q-60.446 25.782-122.446 86.304Zm-189.39-188.63-76.761-76.761q98.608-100.609 229.88-162.554Q329.304 230.522 480 230.522t281.967 62.326q131.272 62.326 229.881 161.935l-76.761 76.761q-91.566-85.848-200.239-138.674Q606.174 340.044 480 340.044t-234.848 52.445Q136.479 444.935 44.913 531.783ZM480 966.63l140.348-141.348q-27.478-26.717-63.435-42.576-35.956-15.858-76.913-15.858-40.957 0-76.913 15.858-35.957 15.859-62.435 42.576L480 966.63Z"/></svg>